<svg width="80" height="80" viewBox="0 0 80 80" fill="none" xmlns="http://www.w3.org/2000/svg">
<path d="M29.6775 35.8826H11.613C10.8994 35.8826 10.3226 35.3059 10.3226 34.5923V19.1084C10.3226 18.3949 10.8994 17.8181 11.613 17.8181H29.6775C30.391 17.8181 30.9678 18.3949 30.9678 19.1084V34.5923C30.9678 35.3059 30.391 35.8826 29.6775 35.8826Z" fill="#ED7702"/>
<path d="M59.3549 61.6892C54.3755 61.6892 50.3226 57.6362 50.3226 52.6569C50.3226 47.6775 54.3755 43.6246 59.3549 43.6246C64.3343 43.6246 68.3872 47.6775 68.3872 52.6569C68.3872 57.6362 64.3343 61.6892 59.3549 61.6892Z" fill="#ED7702"/>
<path d="M74.8387 17.8181V12.6568H51.6129V4.11743L43.871 0.24646V8.25162L42.0465 10.0761H37.9535L36.129 8.25162V0.24646L28.3871 4.11743V12.6568H5.16129V17.8181H0V72.0116H31.0594C31.6865 76.3832 35.4568 79.7536 40 79.7536C44.5432 79.7536 48.3123 76.3832 48.9407 72.0116H80V17.8181H74.8387ZM30.9677 5.71227L33.5484 4.42194V9.32001L36.8852 12.6568H43.1148L46.4516 9.32001V4.42194L49.0323 5.71227V13.4129L43.871 18.5742V46.6671L44.1265 47.0103C44.8039 47.92 45.1613 48.9794 45.1613 50.0761C45.1613 52.9226 42.8465 55.2374 40 55.2374C37.1535 55.2374 34.8387 52.9226 34.8387 50.0761C34.8387 48.9794 35.1961 47.92 35.8736 47.0103L36.129 46.6671V18.5742L30.9677 13.4129V5.71227ZM77.4194 69.431H46.4516V70.7213C46.4516 74.2787 43.5574 77.1729 40 77.1729C36.4426 77.1729 33.5484 74.2787 33.5484 70.7213V69.431H2.58065V20.3987H5.16129V66.8503H74.8387V25.56H72.2581V64.2697H7.74194V15.2374H29.1432L33.5484 19.6426V45.8336C32.7032 47.1084 32.2581 48.5665 32.2581 50.0761C32.2581 54.3458 35.7303 57.8181 40 57.8181C44.2697 57.8181 47.7419 54.3458 47.7419 50.0761C47.7419 48.5665 47.2968 47.1084 46.4516 45.8336V19.6426L50.8568 15.2374H72.2581V22.9794H74.8387V20.3987H77.4194V69.431Z" fill="black"/>
<path d="M30.9678 38.4633H10.3226V41.0439H30.9678V38.4633Z" fill="black"/>
<path d="M30.9678 43.6245H10.3226V46.2052H30.9678V43.6245Z" fill="black"/>
<path d="M30.9678 48.7858H10.3226V51.3664H30.9678V48.7858Z" fill="black"/>
<path d="M30.9678 53.9471H10.3226V56.5278H30.9678V53.9471Z" fill="black"/>
<path d="M25.8065 59.1084H10.3226V61.689H25.8065V59.1084Z" fill="black"/>
<path d="M41.2904 20.3987H38.7097V44.9148H41.2904V20.3987Z" fill="black"/>
<path d="M69.6774 17.8181H49.0322V20.3988H69.6774V17.8181Z" fill="black"/>
<path d="M69.6774 22.9794H49.0322V25.56H69.6774V22.9794Z" fill="black"/>
<path d="M69.6774 28.1406H49.0322V30.7213H69.6774V28.1406Z" fill="black"/>
<path d="M69.6774 33.3019H49.0322V35.8825H69.6774V33.3019Z" fill="black"/>
<path d="M64.5161 38.4633H49.0322V41.0439H64.5161V38.4633Z" fill="black"/>
<path d="M69.6774 38.4633H67.0968V41.0439H69.6774V38.4633Z" fill="black"/>
<path d="M30.9677 59.1084H28.3871V61.689H30.9677V59.1084Z" fill="black"/>
<path d="M41.2904 48.7858H38.7097V51.3664H41.2904V48.7858Z" fill="black"/>
</svg>
