<svg width="80" height="80" viewBox="0 0 80 80" fill="none" xmlns="http://www.w3.org/2000/svg">
<path d="M46.4516 56.7742H11.6129C9.47872 56.7742 7.74194 55.0374 7.74194 52.9032V11.6129C7.74194 9.47872 9.47872 7.74194 11.6129 7.74194H68.3871C70.5213 7.74194 72.2581 9.47872 72.2581 11.6129V36.6013H69.6774V11.6129C69.6774 10.9019 69.0994 10.3226 68.3871 10.3226H11.6129C10.9007 10.3226 10.3226 10.9019 10.3226 11.6129V52.9032C10.3226 53.6142 10.9007 54.1936 11.6129 54.1936H46.4516V56.7742Z" fill="#333333"/>
<path d="M38.7098 30.9677H12.9033V12.9032H38.7098V30.9677ZM15.484 28.3871H36.1291V15.4838H15.484V28.3871Z" fill="#333333"/>
<path d="M67.0967 12.9032H41.2903V15.4838H67.0967V12.9032Z" fill="#333333"/>
<path d="M61.9354 18.0646H41.2903V20.6452H61.9354V18.0646Z" fill="#333333"/>
<path d="M67.0968 18.0646H64.5161V20.6452H67.0968V18.0646Z" fill="#333333"/>
<path d="M36.1291 36.129H12.9033V38.7097H36.1291V36.129Z" fill="#333333"/>
<path d="M80 0H0V64.5161H45.5316L43.7097 80H47.0968L50.1019 75.9935L52.1058 80H56.6852L58.0606 60.7368L55.4877 60.5535L54.2826 77.4193H53.7006L50.5432 71.1032L46.7626 76.1445L49.0232 56.9252L46.4606 56.6232L45.8348 61.9355H2.58065V2.58065H77.4193V61.9355H70.2942L69.6684 56.6232L67.1058 56.9252L69.3664 76.1445L65.5858 71.1032L62.4284 77.4193H61.8465L60.6413 60.5535L58.0684 60.7368L59.4439 80H64.0232L66.0271 75.9935L69.0323 80H72.4193L70.5974 64.5161H80V0Z" fill="#333333"/>
<path d="M36.1291 41.2903H12.9033V43.8709H36.1291V41.2903Z" fill="#333333"/>
<path d="M30.9678 46.4517H12.9033V49.0323H30.9678V46.4517Z" fill="#333333"/>
<path d="M36.129 46.4517H33.5483V49.0323H36.129V46.4517Z" fill="#333333"/>
<path d="M58.0645 61.9355C48.8154 61.9355 41.2903 54.4103 41.2903 45.1613C41.2903 35.9122 48.8154 28.3871 58.0645 28.3871C67.3135 28.3871 74.8387 35.9122 74.8387 45.1613C74.8387 54.4103 67.3135 61.9355 58.0645 61.9355Z" fill="#ED7702"/>
<path d="M58.0646 56.7741C51.6607 56.7741 46.4517 51.5638 46.4517 45.1612C46.4517 38.7587 51.6607 33.5483 58.0646 33.5483C64.4684 33.5483 69.6775 38.7587 69.6775 45.1612C69.6775 47.8 68.8155 50.2864 67.1833 52.3522L65.1575 50.7522C66.4259 49.1471 67.0968 47.2129 67.0968 45.1612C67.0968 40.1806 63.0439 36.129 58.0646 36.129C53.0852 36.129 49.0323 40.1806 49.0323 45.1612C49.0323 50.1419 53.0852 54.1935 58.0646 54.1935C60.0839 54.1935 61.9936 53.5419 63.5859 52.3096L65.1665 54.3509C63.1175 55.9367 60.662 56.7741 58.0646 56.7741Z" fill="#333333"/>
</svg>
