<svg width="65" height="80" viewBox="0 0 65 80" fill="none" xmlns="http://www.w3.org/2000/svg">
<path d="M12.5252 57.1523L10.7007 58.9768L14.1936 62.4697L22.8478 53.8155L21.0233 51.991L14.1936 58.8206L12.5252 57.1523Z" fill="black"/>
<path d="M32.258 52.9032H27.0967V55.4838H32.258V52.9032Z" fill="black"/>
<path d="M32.258 58.0646H27.0967V60.6452H32.258V58.0646Z" fill="black"/>
<path d="M21.0233 39.0878L14.1936 45.9174L12.5252 44.2491L10.7007 46.0736L14.1936 49.5665L22.8478 40.9123L21.0233 39.0878Z" fill="black"/>
<path d="M36.1289 40H27.0967V42.5806H36.1289V40Z" fill="black"/>
<path d="M36.1289 45.1613H27.0967V47.7419H36.1289V45.1613Z" fill="black"/>
<path d="M47.7419 7.74193H43.871V5.16129H35.2503C33.7677 2.04 30.5987 0 27.0968 0C23.5948 0 20.4258 2.04 18.9432 5.16129H10.3226V7.74193H6.45161C2.89419 7.74193 0 10.6361 0 14.1935V65.8064C0 69.3639 2.89419 72.2581 6.45161 72.2581H38.2271V69.6774H6.45161C4.31742 69.6774 2.58064 67.9406 2.58064 65.8064V14.1935C2.58064 12.0594 4.31742 10.3226 6.45161 10.3226H10.3226V12.9032H5.16129V67.0968H34.8387V64.5161H7.74193V15.4839H10.3226V18.0645H36.129V15.4839H12.9032V7.74193H20.7161L21.0206 6.88258C21.9329 4.30968 24.3742 2.58064 27.0968 2.58064C29.8194 2.58064 32.2606 4.30968 33.1716 6.88258L33.4774 7.74193H41.2903V15.4839H38.7097V18.0645H43.871V15.4839H46.4516V42.5806H49.0323V12.9032H43.871V10.3226H47.7419C49.8761 10.3226 51.6129 12.0594 51.6129 14.1935V53.5832H54.1935V14.1935C54.1935 10.6361 51.2993 7.74193 47.7419 7.74193Z" fill="black"/>
<path d="M10.3225 36.129H43.8709V20.6451H10.3225V36.129ZM12.9032 23.2258H41.2903V33.5484H12.9032V23.2258Z" fill="black"/>
<path d="M49.0323 45.1613H46.4517V50.3225H49.0323V45.1613Z" fill="black"/>
<path d="M63.538 60.6838L61.1496 60.0864C61.0245 59.7432 60.8851 59.4077 60.7329 59.0787L61.9987 56.9677C62.3032 56.4593 62.2232 55.8103 61.8051 55.3909L58.1561 51.7419C57.7367 51.3213 57.0877 51.2438 56.5793 51.5484L54.4683 52.8142C54.1393 52.6619 53.8025 52.5213 53.4606 52.3974L52.8632 50.009C52.7212 49.4348 52.2051 49.0322 51.6129 49.0322H46.4516C45.8593 49.0322 45.3432 49.4348 45.2 50.0103L44.6025 52.3987C44.2593 52.5238 43.9238 52.6632 43.5948 52.8154L41.4838 51.5484C40.9754 51.2451 40.3264 51.3238 39.9071 51.7419L36.258 55.3909C35.84 55.809 35.7587 56.4593 36.0645 56.9677L37.3303 59.0787C37.178 59.4077 37.0374 59.7445 36.9135 60.0864L34.5251 60.6838C33.9509 60.8271 33.5483 61.3432 33.5483 61.9354V67.0967C33.5483 67.689 33.9509 68.2051 34.5264 68.3483L36.9148 68.9458C37.04 69.289 37.1793 69.6245 37.3316 69.9535L36.0645 72.0645C35.76 72.5729 35.84 73.2219 36.258 73.6412L39.9071 77.2903C40.3251 77.7096 40.9741 77.7871 41.4838 77.4838L43.5948 76.218C43.9238 76.3703 44.2606 76.5109 44.6025 76.6348L45.2 79.0232C45.3432 79.5974 45.8593 80 46.4516 80H51.6129C52.2051 80 52.7212 79.5974 52.8645 79.0219L53.4619 76.6335C53.8051 76.5083 54.1406 76.369 54.4696 76.2167L56.5806 77.4825C57.0903 77.7858 57.738 77.707 58.1574 77.289L61.8064 73.64C62.2245 73.2219 62.3058 72.5716 62 72.0632L60.7341 69.9522C60.8864 69.6232 61.0271 69.2864 61.1509 68.9445L63.5393 68.3471C64.1122 68.2051 64.5161 67.689 64.5161 67.0967V61.9354C64.5161 61.3432 64.1122 60.8271 63.538 60.6838ZM49.0322 70.9677C45.4696 70.9677 42.5806 68.0787 42.5806 64.5161C42.5806 60.9535 45.4696 58.0645 49.0322 58.0645C52.5948 58.0645 55.4838 60.9535 55.4838 64.5161C55.4838 68.0787 52.5948 70.9677 49.0322 70.9677Z" fill="#ED7702"/>
<path d="M49.0322 72.258C44.7625 72.258 41.2903 68.7858 41.2903 64.5161C41.2903 60.2464 44.7625 56.7742 49.0322 56.7742C53.3019 56.7742 56.7742 60.2464 56.7742 64.5161C56.7742 68.7858 53.3019 72.258 49.0322 72.258ZM49.0322 59.3548C46.1858 59.3548 43.8709 61.6697 43.8709 64.5161C43.8709 67.3626 46.1858 69.6774 49.0322 69.6774C51.8787 69.6774 54.1935 67.3626 54.1935 64.5161C54.1935 61.6697 51.8787 59.3548 49.0322 59.3548Z" fill="black"/>
</svg>
